# Blender 4.1.1
# www.blender.org
mtllib Drone.mtl
o Cube
v 0.000000 -0.015000 0.080000
v 0.000000 0.015000 0.080000
v 0.000000 -0.015000 -0.080000
v 0.000000 0.015000 -0.080000
v 0.020001 -0.015000 0.080000
v 0.020001 0.015000 0.080000
v 0.020001 -0.015000 -0.080000
v 0.020001 0.015000 -0.080000
v -0.020001 -0.015000 0.080000
v -0.020001 0.015000 0.080000
v -0.020001 -0.015000 -0.080000
v -0.020001 0.015000 -0.080000
vn -0.0000 -0.0000 -1.0000
vn 1.0000 -0.0000 -0.0000
vn -0.0000 -0.0000 1.0000
vn -0.0000 -1.0000 -0.0000
vn -0.0000 1.0000 -0.0000
vn -1.0000 -0.0000 -0.0000
vt 0.375000 0.250000
vt 0.625000 0.250000
vt 0.625000 0.500000
vt 0.375000 0.500000
vt 0.625000 0.750000
vt 0.375000 0.750000
vt 0.625000 1.000000
vt 0.375000 1.000000
vt 0.125000 0.500000
vt 0.125000 0.750000
vt 0.875000 0.500000
vt 0.875000 0.750000
s 0
f 3/1/1 4/2/1 8/3/1 7/4/1
f 7/4/2 8/3/2 6/5/2 5/6/2
f 5/6/3 6/5/3 2/7/3 1/8/3
f 3/9/4 7/4/4 5/6/4 1/10/4
f 8/3/5 4/11/5 2/12/5 6/5/5
f 3/1/1 11/4/1 12/3/1 4/2/1
f 11/4/6 9/6/6 10/5/6 12/3/6
f 9/6/3 1/8/3 2/7/3 10/5/3
f 3/9/4 1/10/4 9/6/4 11/4/4
f 12/3/5 10/5/5 2/12/5 4/11/5
o Cube.001
v -0.014999 -0.021000 0.015000
v -0.014999 -0.015000 0.015000
v -0.014999 -0.021000 -0.015000
v -0.014999 -0.015000 -0.015000
v 0.015001 -0.021000 0.015000
v 0.015001 -0.015000 0.015000
v 0.015001 -0.021000 -0.015000
v 0.015001 -0.015000 -0.015000
v -0.014999 -0.021000 -0.005000
v -0.014999 -0.021000 0.005000
v -0.014999 -0.015000 0.005000
v -0.014999 -0.015000 -0.005000
v 0.015001 -0.021000 0.005000
v 0.015001 -0.021000 -0.005000
v 0.015001 -0.015000 -0.005000
v 0.015001 -0.015000 0.005000
v 0.005001 -0.021000 -0.015000
v -0.004999 -0.021000 -0.015000
v -0.004999 -0.015000 -0.015000
v 0.005001 -0.015000 -0.015000
v -0.004999 -0.021000 0.015000
v 0.005001 -0.021000 0.015000
v 0.005001 -0.015000 0.015000
v -0.004999 -0.015000 0.015000
v -0.004999 -0.015000 -0.005000
v 0.005001 -0.015000 -0.005000
v -0.004999 -0.015000 0.005000
v 0.005001 -0.015000 0.005000
v 0.005001 -0.021000 -0.005000
v -0.004999 -0.021000 -0.005000
v 0.005001 -0.021000 0.005000
v -0.004999 -0.021000 0.005000
v 0.089854 -0.015000 -0.099853
v 0.099854 -0.015000 -0.099853
v 0.099854 -0.021000 -0.099853
v 0.099854 -0.021000 -0.089853
v 0.099854 -0.015000 -0.089853
v 0.089854 -0.021000 -0.099853
v -0.099852 -0.015000 -0.089853
v -0.099852 -0.015000 -0.099853
v -0.099852 -0.021000 -0.099853
v -0.089852 -0.021000 -0.099853
v -0.099852 -0.021000 -0.089853
v -0.089852 -0.015000 -0.099853
v -0.099852 -0.021000 0.089853
v -0.099852 -0.021000 0.099853
v -0.099852 -0.015000 0.099853
v -0.089852 -0.015000 0.099853
v -0.099852 -0.015000 0.089853
v -0.089852 -0.021000 0.099853
v 0.099854 -0.015000 0.089853
v 0.099854 -0.015000 0.099853
v 0.099854 -0.021000 0.099853
v 0.089854 -0.021000 0.099853
v 0.099854 -0.021000 0.089853
v 0.089854 -0.015000 0.099853
vn -0.0000 -1.0000 -0.0000
vn -0.0000 1.0000 -0.0000
vn -0.7071 -0.0000 -0.7071
vn 1.0000 -0.0000 -0.0000
vn -1.0000 -0.0000 -0.0000
vn -0.0000 -0.0000 1.0000
vn -0.0000 -0.0000 -1.0000
vn 0.7071 -0.0000 0.7071
vn -0.7071 -0.0000 0.7071
vn 0.7071 -0.0000 -0.7071
vt 0.208333 0.500000
vt 0.125000 0.500000
vt 0.625000 0.500000
vt 0.625000 0.583333
vt 0.625000 0.666667
vt 0.625000 0.750000
vt 0.625000 0.083333
vt 0.375000 0.083333
vt 0.291667 0.666667
vt 0.375000 0.666667
vt 0.375000 0.750000
vt 0.291667 0.750000
vt 0.791667 0.666667
vt 0.875000 0.666667
vt 0.875000 0.750000
vt 0.791667 0.750000
vt 0.791667 0.500000
vt 0.875000 0.500000
vt 0.875000 0.583333
vt 0.791667 0.583333
vt 0.291667 0.500000
vt 0.375000 0.500000
vt 0.375000 0.583333
vt 0.291667 0.583333
vt 0.125000 0.750000
vt 0.208333 0.750000
vt 0.625000 0.166667
vt 0.375000 0.166667
vt 0.125000 0.583333
vt 0.208333 0.583333
vt 0.208333 0.666667
vt 0.125000 0.666667
vt 0.708333 0.583333
vt 0.708333 0.666667
vt 0.708333 0.500000
vt 0.708333 0.750000
vt 0.375000 0.833333
vt 0.625000 0.833333
vt 0.625000 0.916667
vt 0.375000 0.916667
vt 0.375000 0.333333
vt 0.625000 0.333333
vt 0.625000 0.416667
vt 0.375000 0.416667
vt 0.625000 0.250000
vt 0.375000 0.250000
vt 0.625000 1.000000
vt 0.375000 1.000000
vt 0.375000 0.000000
vt 0.625000 0.000000
s 0
f 30/13/7 15/14/7 53/14/7 54/13/7
f 20/15/8 27/16/8 49/16/8 46/15/8
f 28/17/8 18/18/8 64/18/8 63/17/8
f 23/19/9 22/20/9 57/20/9 61/19/9
f 43/21/7 25/22/7 17/23/7 34/24/7
f 39/25/8 23/26/8 14/27/8 36/28/8
f 31/29/8 16/30/8 24/31/8 37/32/8
f 37/32/8 24/31/8 23/26/8 39/25/8
f 29/33/7 19/34/7 26/35/7 41/36/7
f 41/36/7 26/35/7 25/22/7 43/21/7
f 26/35/7 19/34/7 47/34/7 48/35/7
f 26/35/10 27/16/10 28/17/10 25/22/10
f 13/37/7 33/38/7 62/38/7 58/37/7
f 22/20/11 23/19/11 24/39/11 21/40/11
f 21/41/7 42/42/7 44/43/7 22/44/7
f 42/42/7 41/36/7 43/21/7 44/43/7
f 15/14/7 30/13/7 42/42/7 21/41/7
f 30/13/7 29/33/7 41/36/7 42/42/7
f 27/16/8 38/45/8 40/46/8 28/17/8
f 38/45/8 37/32/8 39/25/8 40/46/8
f 20/15/8 32/47/8 38/45/8 27/16/8
f 32/47/8 31/29/8 37/32/8 38/45/8
f 28/17/8 40/46/8 35/48/8 18/18/8
f 40/46/8 39/25/8 36/28/8 35/48/8
f 22/44/7 44/43/7 33/38/7 13/37/7
f 44/43/7 43/21/7 34/24/7 33/38/7
f 34/24/7 17/23/7 65/23/7 66/24/7
f 34/49/12 35/50/12 36/51/12 33/52/12
f 16/30/8 31/29/8 56/29/8 52/30/8
f 30/53/13 31/54/13 32/55/13 29/56/13
f 50/56/13 45/55/13 46/15/13 47/34/13
f 47/34/10 46/15/10 49/16/10 48/35/10
f 32/47/8 20/15/8 46/15/8 45/47/8
f 19/34/7 29/33/7 50/33/7 47/34/7
f 29/56/9 32/55/9 45/55/9 50/56/9
f 27/16/14 26/35/14 48/35/14 49/16/14
f 55/40/11 51/39/11 52/57/11 53/58/11
f 53/58/13 52/57/13 56/54/13 54/53/13
f 24/31/8 16/30/8 52/30/8 51/31/8
f 21/40/15 24/39/15 51/39/15 55/40/15
f 31/54/16 30/53/16 54/53/16 56/54/16
f 15/14/7 21/41/7 55/41/7 53/14/7
f 62/52/12 60/51/12 59/59/12 58/60/12
f 58/61/11 59/62/11 61/19/11 57/20/11
f 33/52/14 36/51/14 60/51/14 62/52/14
f 22/44/7 13/37/7 58/37/7 57/44/7
f 36/28/8 14/27/8 59/27/8 60/28/8
f 14/27/8 23/26/8 61/26/8 59/27/8
f 67/22/10 63/17/10 64/18/10 65/23/10
f 65/23/12 64/18/12 68/50/12 66/49/12
f 17/23/7 25/22/7 67/22/7 65/23/7
f 25/22/16 28/17/16 63/17/16 67/22/16
f 35/50/15 34/49/15 66/49/15 68/50/15
f 18/18/8 35/48/8 68/48/8 64/18/8
